<?xml version="1.0" standalone="no"?>
<!DOCTYPE svg PUBLIC "-//W3C//DTD SVG 20010904//EN"
 "http://www.w3.org/TR/2001/REC-SVG-20010904/DTD/svg10.dtd">
<svg version="1.0" xmlns="http://www.w3.org/2000/svg"
 width="361.000000pt" height="361.000000pt" viewBox="0 0 361.000000 361.000000"
 preserveAspectRatio="xMidYMid meet">
<metadata>
Created by potrace 1.11, written by Peter Selinger 2001-2013
</metadata>
<g transform="translate(0.000000,361.000000) scale(0.100000,-0.100000)"
fill="#000000" stroke="none">
<path d="M1335 3456 c-182 -42 -318 -119 -441 -247 -108 -114 -176 -229 -221
-376 -23 -78 -26 -105 -27 -238 -1 -128 3 -162 22 -229 94 -327 330 -565 641
-646 41 -11 86 -20 100 -20 45 0 55 -13 42 -51 -19 -52 -25 -235 -12 -314 18
-108 57 -213 113 -311 31 -54 52 -101 52 -120 0 -21 -19 -61 -61 -125 -115
-179 -213 -402 -213 -487 0 -37 3 -41 38 -55 225 -90 977 -90 1161 0 20 10 37
26 39 35 10 56 -96 197 -225 299 -60 48 -64 54 -58 83 14 65 39 71 174 36 46
-11 112 -24 146 -27 61 -6 65 -5 94 25 20 19 33 45 37 71 4 23 20 58 35 78 40
49 61 124 47 163 -14 42 -6 56 46 80 24 12 52 30 61 40 22 24 11 44 -59 113
-70 68 -82 118 -66 269 6 57 10 133 9 169 -3 62 -2 68 29 103 41 47 44 100 7
140 -51 55 -214 110 -407 136 -75 10 -87 15 -92 33 -11 41 -6 62 34 142 59
116 83 243 77 405 -5 148 -21 212 -83 337 -54 110 -148 222 -249 300 -88 68
-245 146 -350 174 -103 28 -349 36 -440 15z m450 -196 c122 -38 203 -87 291
-175 65 -64 89 -97 123 -166 57 -119 81 -219 81 -343 0 -132 -20 -210 -80
-324 -28 -51 -50 -101 -50 -112 0 -11 24 -96 54 -188 57 -174 74 -242 60 -242
-12 0 -211 107 -301 162 -92 56 -85 55 -223 17 -66 -18 -110 -23 -195 -23
-134 1 -208 18 -330 78 -147 73 -257 182 -326 321 -57 117 -74 190 -73 320 2
211 56 348 194 485 110 110 216 168 380 206 87 21 308 12 395 -16z"/>
<path d="M1566 3054 c-9 -8 -16 -16 -16 -17 0 -13 -90 -351 -95 -356 -4 -3
-89 -6 -190 -6 -169 0 -186 -2 -212 -21 -30 -22 -58 -71 -66 -120 l-6 -31 207
-7 c113 -4 208 -8 209 -10 2 -1 -13 -103 -32 -227 -19 -123 -35 -227 -35 -231
0 -5 24 -8 54 -8 83 0 90 10 137 195 62 248 67 263 91 271 12 3 91 3 177 0
139 -6 160 -5 191 11 35 18 71 75 84 134 l6 26 -98 6 c-53 4 -148 7 -209 7
-72 0 -113 4 -113 10 0 6 20 91 45 190 25 99 45 184 45 190 0 18 -156 13 -174
-6z"/>
</g>
</svg>
